<?xml version="1.0" standalone="no"?>
<!DOCTYPE svg PUBLIC "-//W3C//DTD SVG 20010904//EN"
 "http://www.w3.org/TR/2001/REC-SVG-20010904/DTD/svg10.dtd">
<svg version="1.0" xmlns="http://www.w3.org/2000/svg"
 width="1280.000000pt" height="1278.000000pt" viewBox="0 0 1280.000000 1278.000000"
 preserveAspectRatio="xMidYMid meet">
<g transform="translate(0.000000,1278.000000) scale(0.100000,-0.100000)"
fill="#4B8696">
<path d="M5320 12041 c-135 -10 -263 -23 -285 -30 -22 -6 -123 -25 -225 -42
-189 -31 -310 -61 -530 -129 -69 -21 -152 -46 -185 -55 -49 -14 -172 -61 -270
-105 -11 -5 -85 -37 -165 -71 -249 -106 -448 -214 -690 -375 -245 -163 -302
-205 -483 -364 -54 -47 -117 -100 -140 -119 -74 -58 -397 -392 -464 -478 -12
-15 -46 -57 -75 -93 -157 -192 -289 -385 -437 -638 -256 -442 -448 -939 -551
-1427 -12 -55 -25 -116 -30 -135 -5 -19 -16 -82 -25 -140 -36 -240 -47 -403
-51 -765 -5 -337 -1 -450 21 -600 4 -22 15 -107 26 -190 11 -82 28 -188 39
-235 11 -47 24 -107 30 -135 15 -72 59 -232 80 -290 10 -27 32 -102 50 -165
36 -128 134 -383 204 -532 25 -53 46 -100 46 -103 0 -12 151 -287 227 -414 72
-120 205 -318 298 -446 25 -33 77 -107 116 -165 268 -392 532 -696 860 -990
58 -52 136 -117 172 -145 37 -27 82 -62 100 -76 50 -41 333 -230 417 -278 41
-24 91 -54 111 -67 121 -76 419 -231 479 -249 14 -4 46 -18 71 -31 25 -12 70
-32 100 -43 30 -11 86 -32 124 -46 226 -87 634 -194 890 -235 72 -11 157 -25
190 -30 119 -20 364 -39 575 -46 523 -16 1085 55 1565 198 278 83 326 98 400
128 44 18 98 39 120 47 22 8 64 26 94 40 30 14 84 37 120 52 109 45 479 244
538 291 14 11 30 20 34 20 8 0 145 91 289 191 61 42 234 176 279 215 20 18 90
79 156 136 358 312 751 786 989 1193 32 55 69 116 81 135 65 104 214 421 291
620 14 36 32 80 40 99 31 70 115 335 152 481 64 246 102 456 143 785 29 236
29 814 0 1050 -29 233 -56 405 -86 540 -8 39 -18 84 -22 100 -35 174 -135 498
-211 690 -80 200 -285 608 -390 775 -112 178 -142 224 -221 335 -295 415 -787
889 -1231 1185 -52 35 -151 105 -220 155 -167 122 -384 264 -555 362 -139 79
-434 227 -530 264 -27 11 -63 26 -80 33 -64 28 -243 95 -310 115 -38 11 -131
40 -205 62 -121 38 -425 106 -570 129 -400 64 -858 82 -1280 51z"/>
</g>
</svg>
